# xmcd
# Track frame offsets:
# 150
# 16331
# 32835
# 51094
# 65029
# 80417
# 99500
# 115473
# 128816
# 142637
# 160035
# 171191
#
# Disc length: 2606 seconds
# Revision: 0
# Processed by: cddbd v1.4PL0 Copyright (c) Steve Scherf et al.
# Submitted via: VisiTrax 2.9.5.180 - For more info visit www.synapsa.com
#
DISCID=980a2c0c
DTITLE=Jill Jones and The Lonestar Chorale - New Day
DYEAR=1999
DGENRE=
TTITLE0=Singing on the trail
TTITLE1=Endless sky
TTITLE2=New day
TTITLE3=Another cowboy song
TTITLE4=Double diamond
TTITLE5=Ernsto Galven
TTITLE6=If I were a cowboy
TTITLE7=Plains of San Augustine
TTITLE8=Cowboy rhythm
TTITLE9=Pretty pauline
TTITLE10=Heaven on horseback
TTITLE11=Buck's song
EXTD=
EXTT0=
EXTT1=
EXTT2=
EXTT3=
EXTT4=
EXTT5=
EXTT6=
EXTT7=
EXTT8=
EXTT9=
EXTT10=
EXTT11=
PLAYORDER=
